<svg xmlns="http://www.w3.org/2000/svg" viewBox="0 0 400 400">
    <g id="svgg">
      <path id="path0" d="M299.200 200.131 L 299.200 220.393 279.100 220.496 L 259.000 220.600 258.998 300.200 C 258.996 343.980,259.042 361.845,259.099 339.900 L 259.204 300.000 279.402 300.000 L 299.600 300.000 299.600 260.466 L 299.600 220.932 329.066 220.666 C 345.272 220.520,363.182 220.400,368.866 220.400 L 379.200 220.400 379.200 200.400 L 379.200 180.400 368.900 180.400 C 363.235 180.400,345.235 180.280,328.900 180.134 L 299.200 179.868 299.200 200.131 M179.200 340.000 L 179.200 380.000 199.600 380.000 L 220.000 380.000 220.000 340.000 L 220.000 300.000 199.600 300.000 L 179.200 300.000 179.200 340.000 M20.000 359.800 L 20.000 380.000 60.000 380.000 L 100.000 380.000 100.000 359.800 L 100.000 339.600 60.000 339.600 L 20.000 339.600 20.000 359.800 " stroke="none" fill="#449c44" fill-rule="evenodd"></path>
      <path id="path1" d="M338.596 100.733 C 338.708 101.026,338.800 119.071,338.800 140.833 L 338.800 180.400 359.000 180.400 L 379.200 180.400 379.200 140.833 C 379.200 119.071,379.292 101.026,379.404 100.733 C 379.573 100.293,375.998 100.200,359.000 100.200 C 342.002 100.200,338.427 100.293,338.596 100.733 M338.800 259.967 C 338.800 281.729,338.708 299.774,338.596 300.067 C 338.427 300.507,342.002 300.600,359.000 300.600 C 375.998 300.600,379.573 300.507,379.404 300.067 C 379.292 299.774,379.200 281.729,379.200 259.967 L 379.200 220.400 359.000 220.400 L 338.800 220.400 338.800 259.967 M259.200 339.567 C 259.200 361.329,259.108 379.374,258.996 379.667 C 258.826 380.109,269.041 380.200,319.096 380.200 L 379.400 380.200 379.400 359.800 L 379.400 339.400 339.500 339.506 L 299.600 339.611 299.600 319.806 L 299.600 300.000 279.400 300.000 L 259.200 300.000 259.200 339.567 " stroke="none" fill="#1e881c" fill-rule="evenodd"></path>
      <path id="path2" d="M140.307 41.044 L 140.415 61.288 179.907 61.009 L 219.400 60.730 219.504 40.765 L 219.607 20.800 179.904 20.800 L 140.200 20.800 140.307 41.044 M20.098 180.700 L 20.200 220.600 40.300 220.704 L 60.400 220.807 60.447 200.504 C 60.473 189.337,60.473 180.065,60.447 179.900 C 60.421 179.735,60.535 179.600,60.700 179.600 C 60.865 179.600,61.000 170.870,61.000 160.200 L 61.000 140.800 40.498 140.800 L 19.996 140.800 20.098 180.700 " stroke="none" fill="#bcdcbc" fill-rule="evenodd"></path>
      <path id="path3" d="M258.992 100.800 C 258.992 122.690,259.041 131.645,259.100 120.700 C 259.159 109.755,259.159 91.845,259.100 80.900 C 259.041 69.955,258.992 78.910,258.992 100.800 M119.700 141.100 C 130.645 141.159,148.555 141.159,159.500 141.100 C 170.445 141.041,161.490 140.992,139.600 140.992 C 117.710 140.992,108.755 141.041,119.700 141.100 M269.528 141.100 C 275.098 141.163,284.098 141.162,289.528 141.100 C 294.958 141.037,290.400 140.985,279.400 140.986 C 268.400 140.986,263.958 141.037,269.528 141.100 M219.200 199.933 L 219.200 220.000 199.424 220.000 C 188.547 220.000,179.564 220.135,179.462 220.300 C 179.360 220.465,188.359 220.510,199.460 220.400 L 219.644 220.200 219.611 200.223 C 219.593 189.235,219.494 180.160,219.389 180.056 C 219.285 179.952,219.200 188.897,219.200 199.933 M140.000 260.200 C 140.000 285.933,140.136 299.200,140.400 299.200 C 140.664 299.200,140.800 285.933,140.800 260.200 C 140.800 234.467,140.664 221.200,140.400 221.200 C 140.136 221.200,140.000 234.467,140.000 260.200 M100.000 280.015 L 100.200 300.030 120.362 300.019 C 131.452 300.013,140.620 299.913,140.736 299.797 C 140.852 299.681,131.869 299.596,120.774 299.607 L 100.600 299.629 100.496 279.815 C 100.439 268.917,100.259 260.000,100.096 260.000 C 99.933 260.000,99.890 269.007,100.000 280.015 " stroke="none" fill="#71b471" fill-rule="evenodd"></path>
      <path id="path4" d="M219.504 40.815 L 219.400 60.830 199.800 60.824 C 189.020 60.820,179.954 60.972,179.653 61.161 C 179.193 61.451,179.154 67.845,179.405 101.356 L 179.703 141.207 199.752 141.104 L 219.800 141.000 219.902 101.148 L 220.004 61.296 259.602 60.998 L 299.200 60.700 299.200 40.750 L 299.200 20.800 259.404 20.800 L 219.607 20.800 219.504 40.815 M60.667 180.267 C 60.520 180.413,60.400 189.615,60.400 200.715 L 60.400 220.897 99.900 220.603 C 121.625 220.442,139.535 220.229,139.700 220.131 C 139.865 220.033,140.000 210.963,140.000 199.976 L 140.000 180.000 100.467 180.000 C 78.723 180.000,60.813 180.120,60.667 180.267 " stroke="none" fill="#9ccc9c" fill-rule="evenodd"></path>
      <path id="path5" d="M20.000 80.593 L 20.000 140.386 40.600 140.493 L 61.200 140.600 61.200 100.900 L 61.200 61.200 100.400 61.200 L 139.600 61.200 139.600 41.000 L 139.600 20.800 79.800 20.800 L 20.000 20.800 20.000 80.593 " stroke="none" fill="#e2efe2" fill-rule="evenodd"></path>
      <path id="path6" d="M219.611 200.100 L 219.643 220.200 199.522 220.400 L 179.400 220.600 179.298 260.300 L 179.196 300.000 199.598 300.000 L 220.000 300.000 220.000 260.448 L 220.000 220.896 259.600 220.598 L 299.200 220.300 299.200 200.150 L 299.200 180.000 259.390 180.000 L 219.579 180.000 219.611 200.100 M20.000 280.008 L 20.000 300.400 59.734 300.400 L 99.468 300.400 99.734 329.866 C 99.880 346.072,100.000 363.982,100.000 369.666 L 100.000 380.000 120.153 380.000 L 140.307 380.000 140.548 379.100 C 140.681 378.605,140.792 360.607,140.795 339.104 L 140.800 300.008 120.500 300.019 L 100.200 300.030 99.991 279.915 C 99.876 268.852,99.741 259.753,99.691 259.696 C 99.641 259.639,81.690 259.598,59.800 259.604 L 20.000 259.615 20.000 280.008 " stroke="none" fill="#5cac5c" fill-rule="evenodd"></path>
      <path id="path7" d="M139.600 40.976 C 139.600 54.192,139.739 61.200,140.000 61.200 C 140.261 61.200,140.400 54.275,140.400 41.224 C 140.400 28.337,140.258 21.159,140.000 21.000 C 139.735 20.836,139.600 27.596,139.600 40.976 M30.100 140.700 C 35.765 140.762,45.035 140.762,50.700 140.700 C 56.365 140.637,51.730 140.586,40.400 140.586 C 29.070 140.586,24.435 140.637,30.100 140.700 M60.985 160.400 C 60.985 170.850,61.036 175.125,61.100 169.900 C 61.163 164.675,61.163 156.125,61.100 150.900 C 61.036 145.675,60.985 149.950,60.985 160.400 " stroke="none" fill="#c4dcc4" fill-rule="evenodd"></path>
      <path id="path8" d="M299.200 40.800 L 299.200 60.800 279.200 60.800 L 259.200 60.800 259.200 100.800 L 259.200 140.800 279.400 140.800 L 299.600 140.800 299.600 101.000 L 299.600 61.200 339.400 61.200 L 379.200 61.200 379.200 41.000 L 379.200 20.800 339.200 20.800 L 299.200 20.800 299.200 40.800 M99.867 100.667 C 99.720 100.813,99.600 109.948,99.600 120.967 L 99.600 141.000 139.600 141.000 L 179.600 141.000 179.600 120.700 L 179.600 100.400 139.867 100.400 C 118.013 100.400,100.013 100.520,99.867 100.667 M139.904 200.100 L 139.800 220.200 119.700 220.304 L 99.600 220.407 99.600 240.204 C 99.600 253.135,99.739 260.000,100.000 260.000 C 100.261 260.000,100.400 266.859,100.400 279.776 C 100.400 290.653,100.535 299.608,100.700 299.676 C 100.865 299.744,110.000 299.707,121.000 299.594 C 132.000 299.481,140.774 299.346,140.498 299.294 C 140.099 299.219,140.017 291.210,140.098 260.100 L 140.200 221.000 159.584 220.896 C 171.703 220.831,179.116 220.644,179.364 220.396 C 179.615 220.145,186.996 220.000,199.480 220.000 L 219.200 220.000 219.200 200.000 L 219.200 180.000 179.604 180.000 L 140.007 180.000 139.904 200.100 " stroke="none" fill="#84c484" fill-rule="evenodd"></path>
    </g>
</svg>
